<?xml version="1.0" encoding="UTF-8"?>
<!DOCTYPE svg PUBLIC "-//W3C//DTD SVG 1.1//EN" "http://www.w3.org/Graphics/SVG/1.1/DTD/svg11.dtd">
<!-- Creator: CorelDRAW -->
<svg xmlns="http://www.w3.org/2000/svg" xml:space="preserve" width="198px" height="75px" style="shape-rendering:geometricPrecision; text-rendering:geometricPrecision; image-rendering:optimizeQuality; fill-rule:evenodd; clip-rule:evenodd"
viewBox="0 0 50.8393 19.2412"
 xmlns:xlink="http://www.w3.org/1999/xlink">
 <defs>
  <style type="text/css">
   <![CDATA[
    .fil0 {fill:none}
    .fil1 {fill:#373435}
    .fil2 {fill:#373435;fill-rule:nonzero}
   ]]>
  </style>
 </defs>
 <g id="Camada_x0020_1">
  <metadata id="CorelCorpID_0Corel-Layer"/>
  <g id="_712075800">
   <rect id="_770874976" class="fil0" width="50.8393" height="19.2412"/>
   <path id="_635586712" class="fil1" d="M1.62778 7.93133c5.2921,2.47015 7.1332,6.479 2.78256,9.47942 2.20593,-3.28283 1.69959,-6.60263 -2.78256,-9.47942zm8.01042 9.12793c0.0451488,-0.449063 0.110902,-0.862674 0.193625,-1.24265 0.353918,-1.62172 1.03751,-2.68135 1.9114,-3.31222 0.877825,-0.633598 1.94109,-0.830555 3.05436,-0.728743 0.246652,0.0221199 0.494212,0.0590873 0.739955,0.108478 0.287558,0.0563602 0.190594,0.416944 -0.0696927,0.364826 -0.238167,-0.0478759 -0.473607,-0.0836312 -0.70329,-0.104842 -1.02903,-0.0936306 -2.00654,0.0845403 -2.80468,0.660566 -0.802072,0.579055 -1.43264,1.56627 -1.76535,3.09042 -0.0806011,0.371189 -0.144234,0.772377 -0.18817,1.20356 -0.0348464,0.356948 -0.407854,0.360281 -0.368159,-0.0393915zm-2.92043 0.309678c0.076662,-0.202715 0.149688,-0.401188 0.224532,-0.599963 0.734197,-1.92988 1.48961,-3.91643 0.0818132,-5.13302 -0.110902,-0.0966607 -0.0481789,-0.206351 0.0796921,-0.0942367 1.47506,1.27174 0.703593,3.30071 -0.0460578,5.27119 -0.076359,0.200897 -0.153021,0.401491 -0.224229,0.593903 -0.0124235,0.0348464 -0.0306042,0.124538 -0.0657536,0.116963 -0.0212108,-0.00424216 -0.0896915,-0.0493909 -0.0499969,-0.154839zm0.179383 -6.66808c1.29053,0.386946 2.48833,0.549663 3.64796,0.570268 1.14114,0.0206048 2.24744,-0.0963577 3.3707,-0.269377 0.186655,-0.0278771 0.14787,0.102115 0.0466638,0.117569 -1.13932,0.176353 -2.26077,0.296042 -3.41918,0.275135 -1.1772,-0.0209078 -2.39349,-0.186655 -3.70553,-0.582389 -0.0642385,-0.0178777 -0.0303012,-0.138476 0.0593903,-0.111205zm9.47972 -5.39876c-0.00121205,0.964486 -0.383613,1.32083 -0.854796,1.32083 -0.47088,0 -0.853887,-0.356342 -0.854796,-1.32083 0.189685,0.573601 0.501787,1.02751 0.854796,1.02751 0.353312,0 0.665414,-0.453912 0.854796,-1.02751zm-0.855099 -1.90867c0.354524,0 0.641779,0.529968 0.641779,1.18296 0,0.653293 -0.287255,1.18356 -0.641779,1.18356 -0.353615,0 -0.64087,-0.530271 -0.64087,-1.18356 0,-0.65299 0.287255,-1.18296 0.64087,-1.18296zm-0.00393915 7.71771l0.00272711 -4.29459c0.65299,1.912 0.978122,3.76977 1.17993,5.65511 0.0721168,0.345736 -1.22053,-1.04781 -1.18265,-1.36052zm-14.6458 -3.71341c0.289679,0.0590873 0.503909,0.210593 0.478153,0.338161 -0.026362,0.128174 -0.282407,0.183928 -0.572389,0.124841 -0.289982,-0.0587843 -0.504212,-0.210593 -0.478153,-0.338464 0.025756,-0.127871 0.282407,-0.183625 0.572389,-0.124538zm1.39082 -5.71117c0.305133,0.300891 0.703896,0.52724 1.11599,0.63481l0.101206 -0.178171 0.266953 -0.469062 -0.444821 0.367856 -0.75965 -0.432398 0.0887824 -0.570268 -0.266953 0.469365 -0.101509 0.177868zm1.1169 -0.555118c0.151203,0.0860553 0.203927,0.277862 0.117872,0.428762 -0.0860553,0.151203 -0.277862,0.203927 -0.428762,0.117872 -0.1509,-0.0860553 -0.203927,-0.277862 -0.117872,-0.428762 0.0860553,-0.1509 0.277862,-0.203927 0.428762,-0.117872zm-2.0223 5.81055l1.59414 -4.65002 -2.36925 4.56245c-0.171202,0.346039 0.723592,0.399673 0.775104,0.0875704zm8.51039 0.678746c0.852372,0 1.54324,0.69117 1.54324,1.54263 0,0.852069 -0.690867,1.54354 -1.54324,1.54354 -0.852069,0 -1.54294,-0.691473 -1.54294,-1.54354 0,-0.851463 0.690867,-1.54263 1.54294,-1.54263z"/>
   <path id="_700357472" class="fil2" d="M20.6245 11.2896l0 1.7099 -1.11902 0 0 -4.96454 1.75262 0c1.25023,0 1.87655,0.52724 1.87655,1.58233 0,0.498757 -0.179686,0.901763 -0.539058,1.21023 -0.357857,0.307254 -0.837827,0.462093 -1.43809,0.462093l-0.532998 0zm0 -2.39652l0 1.54809 0.43967 0c0.595721,0 0.893279,-0.261196 0.893279,-0.782376 0,-0.510575 -0.297558,-0.765711 -0.893279,-0.765711l-0.43967 0zm4.35579 2.39652l0 1.7099 -1.11902 0 0 -4.96454 1.75262 0c1.25023,0 1.87655,0.52724 1.87655,1.58233 0,0.498757 -0.179686,0.901763 -0.539058,1.21023 -0.357857,0.307254 -0.837827,0.462093 -1.43809,0.462093l-0.532998 0zm0 -2.39652l0 1.54809 0.43967 0c0.595721,0 0.893279,-0.261196 0.893279,-0.782376 0,-0.510575 -0.297558,-0.765711 -0.893279,-0.765711l-0.43967 0zm7.31258 3.77431c-0.484516,0.279074 -1.08721,0.418459 -1.80807,0.418459 -0.797527,0 -1.42749,-0.221199 -1.88837,-0.66299 -0.459669,-0.442094 -0.690261,-1.05054 -0.690261,-1.82595 0,-0.779952 0.251803,-1.41567 0.753893,-1.90716 0.503606,-0.491788 1.17356,-0.737531 2.00897,-0.737531 0.526028,0 0.990545,0.0721168 1.39113,0.217562l0 1.04933c-0.383007,-0.222108 -0.850857,-0.332101 -1.40507,-0.332101 -0.464517,0 -0.841464,0.149991 -1.13326,0.451488 -0.293315,0.301194 -0.438458,0.702987 -0.438458,1.20659 0,0.509363 0.131204,0.903884 0.392097,1.18417 0.262408,0.278771 0.61572,0.418156 1.06145,0.418156 0.268165,0 0.48088,-0.0378765 0.636931,-0.113326l0 -0.970244 -0.992667 0 0 -0.893582 2.11169 0 0 2.49712zm3.94339 0.332101l-2.978 0 0 -4.96454 2.86346 0 0 0.909944 -1.74444 0 0 1.10508 1.62384 0 0 0.906308 -1.62384 0 0 1.13569 1.85898 0 0 0.90752zm4.15732 0l-1.09418 0 0 -0.488152 -0.0130295 0c-0.249379,0.383007 -0.61572,0.57451 -1.09781,0.57451 -0.443003,0 -0.799951,-0.156051 -1.06933,-0.469365 -0.270893,-0.311799 -0.40543,-0.749045 -0.40543,-1.31053 0,-0.586025 0.148779,-1.05509 0.446639,-1.4084 0.297861,-0.353615 0.687837,-0.529665 1.16993,-0.529665 0.457245,0 0.775104,0.163323 0.956002,0.491788l0.0130295 0 0 -2.10836 1.09418 0 0 5.24816zm-1.07296 -1.72414l0 -0.266953c0,-0.230592 -0.0672686,-0.422095 -0.200897,-0.57451 -0.133325,-0.152415 -0.308466,-0.228168 -0.522392,-0.228168 -0.242106,0 -0.432398,0.0945397 -0.568147,0.284831 -0.136052,0.191503 -0.204533,0.4527 -0.204533,0.7848 0,0.312102 0.0660566,0.551784 0.197261,0.719653 0.132416,0.169081 0.314526,0.253015 0.547239,0.253015 0.222108,0 0.403006,-0.0887824 0.542391,-0.266044 0.139385,-0.178474 0.209078,-0.413611 0.209078,-0.706623zm5.3627 1.72414l-1.09084 0 0 -0.539967 -0.0163626 0c-0.270589,0.416944 -0.631173,0.626325 -1.08387,0.626325 -0.822374,0 -1.23235,-0.497545 -1.23235,-1.49142l0 -2.14017 1.09054 0 0 2.04321c0,0.499969 0.198776,0.75056 0.595721,0.75056 0.196049,0 0.3521,-0.0687837 0.470274,-0.205745 0.118175,-0.136961 0.17605,-0.32392 0.17605,-0.559057l0 -2.02897 1.09084 0 0 3.54524zm4.5876 -0.17605c-0.361796,0.174838 -0.835706,0.262408 -1.41931,0.262408 -0.762378,0 -1.36022,-0.22332 -1.79625,-0.671171 -0.437246,-0.448154 -0.654808,-1.04478 -0.654808,-1.7905 0,-0.794194 0.244833,-1.43809 0.735107,-1.932 0.490576,-0.494212 1.12751,-0.739955 1.90958,-0.739955 0.484516,0 0.893582,0.0602993 1.22568,0.183322l0 1.0766c-0.332101,-0.198776 -0.71026,-0.297861 -1.13569,-0.297861 -0.465729,0 -0.842676,0.146355 -1.12872,0.43967 -0.28574,0.293012 -0.428762,0.689958 -0.428762,1.19114 0,0.479668 0.134537,0.862674 0.405127,1.14751 0.26968,0.284831 0.633598,0.42755 1.09084,0.42755 0.436034,0 0.835403,-0.106357 1.1972,-0.319071l0 1.02236z"/>
  </g>
 </g>
</svg>
